<svg xmlns="http://www.w3.org/2000/svg" viewBox="0 0 512 512">
  <circle cx="256" cy="256" r="248" fill="#ffffff" stroke="#e2e8f0" stroke-width="4"/>
  <path d="M120 40C160 120 160 392 120 472" fill="none" stroke="#dc2626" stroke-width="12" stroke-linecap="round"/>
  <path d="M392 40C352 120 352 392 392 472" fill="none" stroke="#dc2626" stroke-width="12" stroke-linecap="round"/>
  <path d="M110 90L135 110M125 150L150 170M135 210L160 230M135 280L160 300M125 340L150 360M110 400L135 420" fill="none" stroke="#dc2626" stroke-width="8" stroke-linecap="round"/>
  <path d="M402 90L377 110M387 150L362 170M377 210L352 230M377 280L352 300M387 340L362 360M402 400L377 420" fill="none" stroke="#dc2626" stroke-width="8" stroke-linecap="round"/>
</svg>
